<?xml version="1.0" standalone="no"?>
<!DOCTYPE svg PUBLIC "-//W3C//DTD SVG 20010904//EN"
 "http://www.w3.org/TR/2001/REC-SVG-20010904/DTD/svg10.dtd">
<svg version="1.0" xmlns="http://www.w3.org/2000/svg"
 width="300.000000pt" height="95.000000pt" viewBox="0 0 300.000000 95.000000"
 preserveAspectRatio="xMidYMid meet">
<g transform="translate(0.000000,95.000000) scale(0.100000,-0.100000)"
fill="#000000" stroke="none">
<path d="M961 756 c-7 -8 -10 -24 -6 -36 8 -26 72 -29 82 -4 15 39 -49 72 -76
40z"/>
<path d="M2561 756 c-7 -8 -10 -24 -6 -36 8 -26 72 -29 82 -4 15 39 -49 72
-76 40z"/>
<path d="M151 679 c-22 -9 -23 -13 -17 -72 3 -34 9 -132 12 -218 5 -126 4
-163 -8 -185 l-14 -29 162 0 c157 0 162 1 152 19 -15 28 -14 264 1 369 15 98
11 110 -39 122 -36 9 -59 -13 -81 -75 -18 -50 -20 -51 -14 -15 13 77 12 80
-17 83 -32 4 -35 -8 -17 -71 6 -22 8 -41 5 -44 -3 -3 -10 15 -17 41 -7 28 -22
54 -37 66 -27 22 -36 23 -71 9z m72 -26 c30 -34 39 -105 35 -281 -2 -117 -7
-175 -15 -183 -21 -21 -33 34 -33 159 0 64 -7 158 -15 207 -8 50 -15 96 -15
103 0 18 24 15 43 -5z m163 -45 c-3 -35 -11 -97 -16 -138 -5 -41 -9 -121 -10
-177 0 -99 -11 -134 -31 -102 -5 8 -9 100 -9 204 0 166 3 195 20 233 11 25 26
42 36 42 15 0 16 -8 10 -62z"/>
<path d="M502 666 c6 -11 10 -67 9 -125 -1 -57 1 -102 4 -100 3 3 12 44 20 92
17 97 32 137 52 137 11 0 13 -25 11 -127 -2 -71 1 -148 5 -173 l7 -45 -17 50
c-15 41 -23 51 -45 53 -15 2 -36 -2 -47 -8 -19 -10 -20 -19 -18 -122 l2 -113
27 -9 c37 -13 62 11 77 71 7 25 15 43 18 40 3 -4 0 -27 -7 -52 -7 -25 -11 -47
-9 -49 2 -2 21 -6 42 -9 34 -5 38 -4 31 11 -13 32 -16 189 -5 320 6 72 8 138
5 146 -8 22 -40 30 -110 31 -58 0 -61 -1 -52 -19z m58 -256 c38 -20 38 -156 0
-202 -26 -33 -31 -20 -18 44 10 49 9 61 -6 97 -10 22 -16 47 -13 55 7 19 12
19 37 6z"/>
<path d="M705 670 c18 -20 55 -172 55 -225 0 -49 -35 -207 -53 -244 l-14 -27
113 0 112 1 -14 27 c-20 39 -54 185 -54 233 0 49 36 202 54 230 13 20 11 20
-100 20 -101 0 -111 -2 -99 -15z m140 -75 c-1 -38 -4 -88 -9 -110 -7 -36 -9
-38 -17 -18 -4 13 -11 64 -15 114 l-7 91 24 -4 c23 -3 24 -7 24 -73z m-40
-261 c19 -101 19 -140 0 -148 -46 -17 -62 32 -45 137 20 124 23 125 45 11z"/>
<path d="M1110 677 c-21 -11 -25 -19 -23 -52 12 -212 14 -414 5 -431 -10 -18
-5 -19 149 -19 138 0 158 2 152 15 -13 28 -15 235 -3 342 13 123 10 143 -27
153 -39 9 -75 -22 -92 -81 -8 -27 -16 -43 -18 -36 -3 7 0 27 6 44 19 53 15 70
-16 66 -30 -3 -31 -6 -18 -83 6 -36 4 -35 -14 15 -18 51 -42 80 -65 80 -6 0
-22 -6 -36 -13z m80 -49 c17 -38 20 -67 20 -233 0 -104 -4 -196 -9 -204 -18
-28 -31 2 -32 72 0 68 -10 207 -25 345 -6 54 -5 62 10 62 10 0 25 -17 36 -42z
m160 25 c-1 -10 -5 -38 -11 -63 -5 -25 -13 -122 -17 -217 -5 -113 -11 -176
-19 -184 -23 -23 -33 38 -33 204 0 89 5 180 11 202 12 44 35 75 56 75 7 0 13
-8 13 -17z"/>
<path d="M1560 677 c-21 -11 -25 -19 -23 -52 12 -212 14 -414 5 -431 -10 -18
-5 -19 149 -19 138 0 158 2 152 15 -9 17 -11 272 -3 394 5 78 5 80 -22 95 -25
14 -29 14 -55 -5 -18 -14 -33 -39 -42 -70 -8 -27 -16 -43 -18 -36 -3 7 0 27 6
44 19 53 15 70 -16 66 -30 -3 -31 -6 -18 -83 6 -36 4 -35 -14 15 -18 51 -42
80 -65 80 -6 0 -22 -6 -36 -13z m80 -49 c17 -38 20 -67 20 -233 0 -104 -4
-196 -9 -204 -18 -28 -31 2 -32 72 0 68 -10 207 -25 345 -6 54 -5 62 10 62 10
0 25 -17 36 -42z m160 25 c0 -10 -5 -36 -11 -58 -5 -22 -13 -120 -17 -217 -5
-117 -11 -181 -19 -189 -23 -23 -33 38 -33 204 0 173 8 227 36 258 21 24 44
25 44 2z"/>
<path d="M1923 680 c-28 -11 -38 -47 -24 -84 15 -39 14 -79 -5 -127 -16 -38
-16 -44 2 -95 16 -47 16 -59 5 -87 -24 -58 -24 -74 -1 -97 18 -18 30 -21 85
-18 63 3 64 3 57 28 -4 14 -6 67 -5 119 2 52 1 92 -2 89 -3 -2 -12 -42 -21
-88 -16 -88 -37 -140 -55 -140 -7 0 -9 13 -5 38 21 116 20 125 -18 161 -44 43
-45 59 -5 97 44 42 51 65 34 121 -18 60 -19 73 -1 73 18 0 43 -75 52 -152 10
-83 22 -72 16 15 -2 39 0 89 6 110 9 32 8 37 -6 37 -9 0 -33 2 -52 5 -19 3
-45 0 -57 -5z"/>
<path d="M2088 665 c9 -26 9 -444 0 -470 -7 -19 -4 -20 97 -20 101 0 104 1 97
20 -8 22 -9 252 -2 389 l5 90 -33 9 c-28 9 -36 7 -56 -12 -13 -13 -29 -43 -35
-68 -7 -25 -14 -43 -17 -40 -3 3 -1 22 5 44 18 64 15 70 -29 75 -37 3 -39 2
-32 -17z m152 -7 c0 -7 -7 -53 -15 -103 -8 -49 -15 -143 -15 -207 0 -125 -12
-180 -33 -159 -8 8 -13 66 -15 183 -4 176 5 247 35 281 19 20 43 23 43 5z"/>
<path d="M2347 660 c4 -14 8 -67 8 -118 0 -50 3 -92 6 -92 4 0 9 27 13 60 10
85 34 160 51 160 12 0 15 -22 15 -124 0 -68 2 -145 5 -172 l5 -49 -10 39 c-13
51 -27 66 -59 66 -51 0 -55 -11 -57 -125 -2 -115 6 -135 51 -135 26 0 41 20
61 85 8 26 13 32 13 18 1 -12 -4 -34 -9 -49 -13 -33 -7 -40 43 -47 34 -5 37
-4 26 9 -15 18 -18 200 -6 354 11 137 7 144 -92 144 l-72 1 8 -25z m63 -260
c39 -39 18 -210 -26 -210 -11 0 -14 5 -9 18 16 42 17 119 1 150 -15 30 -13 62
5 62 5 0 18 -9 29 -20z"/>
<path d="M2687 671 c11 -23 16 -439 5 -470 -9 -26 -9 -26 43 -26 50 0 52 1 42
20 -6 11 -10 97 -11 210 -1 159 2 196 16 228 20 44 48 50 48 10 0 -16 -9 -66
-20 -113 -20 -88 -25 -156 -12 -163 4 -2 19 -7 33 -10 25 -6 25 -6 21 51 -2
31 3 94 12 139 18 96 11 129 -30 139 -34 9 -61 -21 -70 -77 -4 -22 -11 -42
-16 -45 -7 -4 -7 6 -2 27 16 71 13 83 -29 90 -33 5 -37 4 -30 -10z"/>
<path d="M953 656 c16 -29 16 -433 0 -461 -10 -19 -8 -20 42 -20 51 0 52 1 44
23 -12 30 -12 424 0 454 8 22 7 23 -44 24 -51 0 -53 -1 -42 -20z"/>
<path d="M2551 658 c5 -9 9 -114 9 -233 0 -119 -4 -224 -9 -233 -8 -15 -3 -17
44 -17 51 0 52 1 44 23 -12 31 -12 438 0 460 8 15 3 17 -44 17 -47 0 -52 -2
-44 -17z"/>
</g>
</svg>
