<svg
  xmlns="http://www.w3.org/2000/svg"
  fill="none"
  width="32"
  height="32"
  viewBox="0 0 57 58"
>
  <path
    fill="#fff"
    d="M23.4 46.7l29.8-29.8a4.2 4.2 0 00.4-5.5 44.3 44.3 0 00-8-8 4.2 4.2 0 00-5.5.4L10.4 33.6l-2.9 8L5.7 43a4 4 0 00-.7 6c.3.4 1 .7 1.5.7h10.8l6-3z"
  />
  <path
    fill="#000"
    fill-rule="evenodd"
    d="M9.3 43.8l.7-.5.3-.8 2.6-7.5 3.3-3.3 9 9.1-3.3 3.4-5 2.5H7a1.2 1.2 0 01.4-1.5l1.8-1.4zm18-5l24-24a1.3 1.3 0 00.1-1.8A41.5 41.5 0 0044 5.6a1.3 1.3 0 00-1.7 0l-24 24.1 9 9zm13-35.1L10.4 33.5l-2.9 8L5.8 43a4 4 0 00-.6 5.8c.3.4.9.7 1.5.7h10.8l6-3 29.8-29.7a4.2 4.2 0 00.4-5.5 44.3 44.3 0 00-8-8 4.2 4.2 0 00-5.5.4z"
  />
</svg>
